<svg width="906" height="562" viewBox="0 0 906 562" fill="none" xmlns="http://www.w3.org/2000/svg">
<rect width="906" height="562" fill="#F5F7FA"/>
<g clip-path="url(#clip0_0_1)">
<rect width="905.719" height="561.282" fill="white"/>
<path d="M882.013 352.974C878.363 351.08 874.853 348.926 871.511 346.53C864.835 341.745 858.871 336.037 853.797 329.578C851.281 326.373 849.002 322.989 846.978 319.453C845.29 316.465 843.791 313.374 842.491 310.198C841.221 307.1 840.154 303.922 839.295 300.685C838.457 297.524 837.832 294.31 837.425 291.065C837.026 287.886 836.85 284.683 836.901 281.48C836.905 281.299 836.91 281.12 836.913 280.942C836.917 280.763 836.921 280.584 836.926 280.403C836.93 280.223 836.937 280.044 836.947 279.868L836.973 279.336C836.82 279.457 836.667 279.579 836.514 279.702L836.057 280.074L835.603 280.448L835.15 280.823L834.859 281.064L834.567 281.307L834.276 281.552L833.989 281.797L834.385 281.331L834.792 280.85C834.926 280.695 835.06 280.542 835.195 280.388C835.331 280.235 835.468 280.083 835.607 279.934L835.935 279.754L836.261 279.576L836.58 279.399L836.903 279.221L836.924 279.215L836.944 279.205L836.964 279.195L836.985 279.188L837.116 279.116L837.245 279.045L837.372 278.973L837.495 278.9L838.059 278.598L838.622 278.3L839.184 278.002L839.746 277.704L839.306 277.486L838.238 276.953L838.245 276.949C838.337 276.988 838.428 277.03 838.518 277.073C838.608 277.117 838.699 277.159 838.791 277.199C838.882 277.242 838.973 277.285 839.062 277.327C839.151 277.37 839.241 277.413 839.333 277.458L839.435 277.502L839.54 277.547L839.646 277.592C839.681 277.606 839.715 277.623 839.748 277.642L839.738 277.812L839.726 277.971L839.717 278.129L839.708 278.29C839.314 283.685 839.595 289.109 840.545 294.435C841.522 299.917 843.125 305.269 845.324 310.385C847.595 315.681 850.435 320.715 853.793 325.398C857.263 330.242 861.239 334.703 865.652 338.705C870.095 342.678 874.942 346.176 880.112 349.14C882.666 350.604 885.296 351.93 887.99 353.115C890.662 354.288 893.395 355.315 896.178 356.192C896.055 356.373 895.93 356.553 895.802 356.732C895.675 356.91 895.546 357.087 895.415 357.262C895.284 357.437 895.151 357.612 895.016 357.785C894.882 357.959 894.746 358.132 894.608 358.303C893.535 357.947 892.467 357.569 891.405 357.168C890.343 356.767 889.287 356.344 888.236 355.9C887.185 355.455 886.141 354.988 885.104 354.5C884.067 354.011 883.037 353.502 882.013 352.974Z" fill="white"/>
<path d="M809.763 393.299C808.568 391.515 807.44 389.697 806.379 387.847C805.318 385.997 804.326 384.12 803.404 382.218C802.482 380.315 801.631 378.389 800.85 376.438C800.069 374.488 799.361 372.52 798.727 370.536C798.404 369.483 798.105 368.427 797.831 367.367C797.558 366.307 797.31 365.245 797.088 364.181C796.866 363.118 796.669 362.052 796.497 360.984C796.325 359.916 796.179 358.848 796.061 357.782C796.001 357.285 795.947 356.787 795.899 356.288C795.851 355.789 795.808 355.291 795.771 354.793C795.734 354.294 795.703 353.796 795.677 353.299C795.651 352.801 795.63 352.304 795.614 351.808C795.853 351.05 796.095 350.295 796.342 349.543C796.589 348.791 796.839 348.042 797.094 347.296C797.349 346.55 797.608 345.807 797.872 345.068C798.136 344.329 798.404 343.593 798.677 342.859C798.617 343.473 798.566 344.09 798.524 344.707C798.482 345.325 798.449 345.945 798.424 346.566C798.399 347.188 798.383 347.811 798.375 348.436C798.368 349.06 798.369 349.686 798.379 350.313C798.378 350.655 798.381 350.997 798.388 351.338C798.395 351.68 798.404 352.022 798.415 352.363C798.427 352.705 798.442 353.047 798.46 353.388C798.478 353.73 798.498 354.072 798.521 354.414C798.784 358.248 799.385 362.052 800.319 365.78C801.264 369.554 802.497 373.249 804.007 376.835C805.546 380.489 807.32 384.039 809.319 387.463C811.352 390.946 813.575 394.316 815.978 397.556C818.565 401.053 821.298 404.459 824.18 407.772C827.061 411.085 830.052 414.308 833.152 417.44C836.255 420.568 839.448 423.6 842.733 426.536C846.018 429.471 849.358 432.305 852.753 435.037C856.229 437.843 859.775 440.542 863.392 443.134C867.009 445.726 870.685 448.205 874.419 450.57C878.153 452.934 881.942 455.183 885.788 457.317C889.633 459.451 893.522 461.463 897.454 463.352C897.635 463.441 897.798 463.561 897.935 463.708C898.07 463.852 898.179 464.017 898.257 464.198C898.335 464.376 898.381 464.566 898.393 464.76C898.405 464.956 898.379 465.151 898.317 465.337C898.297 465.417 898.269 465.495 898.233 465.57C898.198 465.642 898.156 465.711 898.107 465.775C898.059 465.838 898.004 465.896 897.944 465.949C897.883 466 897.817 466.045 897.747 466.082C897.674 466.116 897.596 466.14 897.517 466.154C897.437 466.168 897.355 466.173 897.274 466.167C897.191 466.162 897.11 466.146 897.03 466.122C896.948 466.097 896.869 466.063 896.795 466.021C896.309 465.788 895.823 465.554 895.338 465.319C894.852 465.084 894.368 464.848 893.884 464.61C893.4 464.372 892.917 464.132 892.435 463.889C891.953 463.647 891.471 463.401 890.989 463.152C886.981 461.093 883.027 458.911 879.125 456.605C875.224 454.299 871.382 451.874 867.598 449.327C863.815 446.782 860.101 444.122 856.455 441.348C852.809 438.573 849.24 435.689 845.748 432.694C842.375 429.81 839.045 426.829 835.795 423.747C832.544 420.665 829.375 417.484 826.325 414.202C823.274 410.919 820.345 407.537 817.57 404.052C814.795 400.568 812.182 396.985 809.763 393.299Z" fill="white"/>
<path d="M885.269 106.884L882.398 107.257L901.648 35.008C903.066 30.1836 903.297 25.0878 902.321 20.155C901.474 16.1244 899.379 12.4629 896.334 9.68996C893.144 6.91744 889.235 5.10334 885.059 4.45697C879.972 3.6692 874.779 3.9017 869.783 5.14096L738.955 34.935C734.388 36.0428 730.018 37.8409 725.994 40.267C721.617 42.8694 717.547 45.9555 713.86 49.467C710.066 53.0477 706.661 57.0187 703.701 61.314C700.809 65.4714 698.452 69.9761 696.685 74.722L559.8 451.221C557.524 457.412 556.046 463.867 555.4 470.431C554.801 476.258 555.084 482.143 556.239 487.886C557.203 492.876 559.217 497.604 562.147 501.757C564.834 505.533 568.62 508.389 572.989 509.935L711.217 557.521C717.357 559.612 723.949 560.004 730.294 558.657C737.077 557.179 743.457 554.242 748.989 550.048C755.201 545.38 760.543 539.655 764.771 533.135C769.453 525.971 772.951 518.101 775.132 509.825L867.804 162.017L870.712 161.784L885.269 106.884Z" fill="#2F2E41"/>
<path d="M875.269 102.884L872.398 103.257L891.648 31.008C893.066 26.1836 893.297 21.0878 892.321 16.155C891.474 12.1244 889.379 8.46286 886.334 5.68996C883.144 2.91744 879.235 1.10334 875.059 0.456969C869.972 -0.330803 864.779 -0.0982962 859.783 1.14096L728.955 30.935C724.388 32.0428 720.018 33.8409 715.994 36.267C711.617 38.8694 707.547 41.9555 703.86 45.467C700.066 49.0477 696.661 53.0187 693.701 57.314C690.809 61.4714 688.452 65.9761 686.685 70.722L549.8 447.221C547.524 453.412 546.046 459.867 545.4 466.431C544.801 472.258 545.084 478.143 546.239 483.886C547.203 488.876 549.217 493.604 552.147 497.757C554.834 501.533 558.62 504.389 562.989 505.935L701.217 553.521C707.357 555.612 713.949 556.004 720.294 554.657C727.077 553.179 733.457 550.242 738.989 546.048C745.201 541.38 750.543 535.655 754.771 529.135C759.453 521.971 762.951 514.101 765.132 505.825L857.804 158.017L860.712 157.784L875.269 102.884Z" fill="#3F3D56"/>
<path d="M858.626 10.568L839.395 14.781C839.605 16.4448 839.439 18.1346 838.91 19.726C838.311 21.5873 837.442 23.3507 836.331 24.96C833.83 28.6132 830.493 31.6162 826.597 33.719C826.13 33.967 825.665 34.196 825.202 34.406C824.739 34.616 824.275 34.8066 823.812 34.978C823.351 35.1493 822.892 35.3006 822.437 35.432C821.982 35.5633 821.531 35.674 821.087 35.764L745.897 50.989C744.502 51.3131 743.049 51.2966 741.662 50.941C740.545 50.6412 739.559 49.9775 738.862 49.055C738.159 48.0644 737.762 46.8891 737.72 45.675C737.662 44.1262 737.907 42.581 738.441 41.126C738.574 40.7333 738.726 40.338 738.897 39.94C739.068 39.542 739.254 39.144 739.455 38.746C739.655 38.346 739.873 37.948 740.11 37.552C740.346 37.156 740.596 36.7603 740.859 36.365L726.622 39.484C723.193 40.2881 719.909 41.6171 716.886 43.424C713.582 45.3699 710.511 47.6847 707.73 50.324C704.863 53.0204 702.292 56.0146 700.06 59.256C697.883 62.3881 696.114 65.7844 694.795 69.363L558.167 449.134C556.468 453.801 555.377 458.667 554.921 463.612C554.499 467.977 554.748 472.382 555.658 476.672C556.415 480.38 557.963 483.881 560.195 486.938C562.241 489.711 565.093 491.783 568.362 492.873L707.607 538.111C712.201 539.584 717.105 539.804 721.813 538.748C726.826 537.6 731.535 535.391 735.623 532.269C740.195 528.807 744.13 524.578 747.255 519.769C750.712 514.487 753.307 508.689 754.942 502.591L882.168 33.109C883.235 29.5252 883.433 25.7385 882.745 22.063C882.147 19.0509 880.624 16.3006 878.388 14.196C876.044 12.0917 873.151 10.6972 870.045 10.175C866.251 9.53784 862.367 9.67151 858.626 10.568Z" fill="white"/>
<path d="M783.951 190.432H506.955V96.5665H783.951V190.432Z" fill="white"/>
<path d="M702.969 223.561H431.495V355.157H702.969V223.561Z" fill="white"/>
<path d="M475.597 286.754C486.442 286.754 495.234 277.962 495.234 267.117C495.234 256.272 486.442 247.48 475.597 247.48C464.752 247.48 455.96 256.272 455.96 267.117C455.96 277.962 464.752 286.754 475.597 286.754Z" fill="#CFF4FC"/>
<path d="M520.949 254.026C520.081 254.026 519.248 254.371 518.635 254.984C518.021 255.598 517.676 256.43 517.676 257.298C517.676 258.166 518.021 258.999 518.635 259.613C519.248 260.226 520.081 260.571 520.949 260.571H675.238C676.104 260.569 676.934 260.223 677.547 259.61C678.159 258.996 678.502 258.165 678.502 257.298C678.502 256.432 678.159 255.601 677.547 254.987C676.934 254.374 676.104 254.028 675.238 254.026H520.949Z" fill="#E6E6E6"/>
<path d="M520.949 273.662C520.519 273.661 520.092 273.744 519.694 273.908C519.297 274.071 518.935 274.311 518.63 274.615C518.325 274.918 518.083 275.278 517.917 275.675C517.751 276.072 517.666 276.498 517.665 276.928C517.664 277.358 517.748 277.785 517.912 278.182C518.076 278.58 518.316 278.941 518.62 279.246C518.924 279.551 519.284 279.792 519.682 279.957C520.079 280.123 520.505 280.208 520.935 280.208H587.34C587.769 280.208 588.195 280.123 588.592 279.959C588.989 279.794 589.35 279.553 589.654 279.249C589.958 278.946 590.199 278.585 590.363 278.188C590.528 277.791 590.612 277.365 590.612 276.935C590.612 276.505 590.528 276.08 590.363 275.683C590.199 275.286 589.958 274.925 589.654 274.621C589.35 274.317 588.989 274.076 588.592 273.912C588.195 273.747 587.769 273.662 587.34 273.662H520.949Z" fill="#E6E6E6"/>
<path d="M460.535 305.056C458.046 305.056 456.02 306.524 456.02 308.329C456.02 310.133 458.046 311.602 460.535 311.602H673.406C675.896 311.602 677.922 310.133 677.922 308.329C677.922 306.524 675.896 305.056 673.406 305.056H460.535Z" fill="#E6E6E6"/>
<path d="M460.535 324.693C458.046 324.693 456.02 326.161 456.02 327.966C456.02 329.77 458.046 331.238 460.535 331.238H624.406C626.896 331.238 628.922 329.77 628.922 327.966C628.922 326.161 626.896 324.693 624.406 324.693H460.535Z" fill="#E6E6E6"/>
<path d="M705.73 357.918H428.734V220.8H705.73V357.918ZM434.256 352.396H700.208V226.322H434.256V352.396Z" fill="#E6E6E6"/>
<path d="M553.819 162.52C564.664 162.52 573.455 153.728 573.455 142.883C573.455 132.038 564.664 123.246 553.819 123.246C542.974 123.246 534.182 132.038 534.182 142.883C534.182 153.728 542.974 162.52 553.819 162.52Z" fill="#CFF4FC"/>
<path d="M599.17 129.792C598.302 129.792 597.47 130.137 596.856 130.75C596.242 131.364 595.897 132.197 595.897 133.065C595.897 133.933 596.242 134.765 596.856 135.379C597.47 135.993 598.302 136.337 599.17 136.337H753.459C754.326 136.335 755.156 135.989 755.768 135.376C756.38 134.762 756.724 133.931 756.724 133.065C756.724 132.198 756.38 131.367 755.768 130.753C755.156 130.14 754.326 129.794 753.459 129.792H599.17Z" fill="#E6E6E6"/>
<path d="M599.17 149.428C598.74 149.427 598.314 149.51 597.916 149.674C597.518 149.837 597.156 150.077 596.851 150.381C596.546 150.684 596.304 151.044 596.138 151.441C595.973 151.838 595.887 152.264 595.886 152.694C595.885 153.124 595.969 153.551 596.133 153.948C596.297 154.346 596.538 154.707 596.841 155.012C597.145 155.317 597.506 155.558 597.903 155.723C598.3 155.889 598.726 155.974 599.156 155.974H720.561C721.429 155.974 722.262 155.629 722.875 155.015C723.489 154.402 723.834 153.569 723.834 152.701C723.834 151.833 723.489 151.001 722.875 150.387C722.262 149.773 721.429 149.428 720.561 149.428H599.17Z" fill="#E6E6E6"/>
<path d="M783.951 190.432H506.955V96.5665H783.951V190.432ZM512.477 184.911H778.43V102.088H512.477V184.911Z" fill="#E6E6E6"/>
<path d="M867.081 561.282H0V559.101H867.476L867.081 561.282Z" fill="#CACACA"/>
<path d="M372.632 285.853L146.471 445.784L92.275 369.145L318.436 209.214L372.632 285.853Z" fill="white"/>
<path d="M168.618 395.937C177.472 389.675 179.574 377.421 173.313 368.566C167.051 359.711 154.797 357.609 145.942 363.871C137.087 370.133 134.985 382.387 141.247 391.242C147.509 400.096 159.763 402.199 168.618 395.937Z" fill="#CFF4FC"/>
<path d="M186.75 343.03C186.041 343.531 185.56 344.294 185.414 345.149C185.267 346.005 185.466 346.883 185.967 347.592C186.468 348.301 187.231 348.781 188.086 348.928C188.942 349.075 189.82 348.876 190.529 348.375L316.502 259.292C317.208 258.789 317.687 258.028 317.832 257.173C317.978 256.319 317.778 255.442 317.278 254.735C316.778 254.027 316.017 253.547 315.163 253.399C314.309 253.252 313.432 253.449 312.723 253.947L186.75 343.03Z" fill="#E6E6E6"/>
<path d="M198.088 359.063C197.379 359.563 196.898 360.324 196.75 361.179C196.602 362.034 196.799 362.912 197.298 363.621C197.798 364.331 198.558 364.813 199.413 364.962C200.267 365.111 201.146 364.914 201.856 364.416L201.867 364.408L300.98 294.319C301.688 293.818 302.169 293.056 302.316 292.2C302.463 291.345 302.263 290.466 301.762 289.757C301.514 289.406 301.199 289.108 300.836 288.879C300.472 288.649 300.067 288.494 299.643 288.421C298.788 288.275 297.909 288.474 297.2 288.975L198.088 359.063Z" fill="#E6E6E6"/>
<path d="M372.632 285.853L146.471 445.784L92.275 369.145L318.436 209.214L372.632 285.853ZM147.791 438.088L364.935 284.533L317.115 216.91L99.9712 370.466L147.791 438.088Z" fill="#E6E6E6"/>
<path d="M889.046 257.458C889.848 257.427 890.648 257.564 891.394 257.858C892.103 258.142 892.745 258.57 893.281 259.113C893.819 259.661 894.239 260.312 894.515 261.028C894.806 261.787 894.939 262.598 894.905 263.41C894.873 264.244 894.679 265.063 894.334 265.822C893.998 266.567 893.529 267.245 892.95 267.822C892.376 268.397 891.702 268.862 890.96 269.194C890.208 269.532 889.396 269.718 888.571 269.74C887.769 269.765 886.97 269.621 886.225 269.319C885.52 269.031 884.882 268.601 884.35 268.054C883.817 267.506 883.402 266.854 883.13 266.138C882.844 265.382 882.715 264.575 882.75 263.767C882.784 262.938 882.977 262.123 883.319 261.367C883.654 260.63 884.119 259.958 884.691 259.385C885.261 258.812 885.931 258.347 886.667 258.012C887.416 257.673 888.225 257.485 889.046 257.458Z" fill="#F2F2F2"/>
</g>
<defs>
<clipPath id="clip0_0_1">
<rect width="905.719" height="561.282" fill="white"/>
</clipPath>
</defs>
</svg>
